Coordinates
version=1
nRows=31
nColumns=38
inDegrees=no

Units are S.I. units (second, meters, Newtons, ...)
If the header above contains a line with 'inDegrees', this indicates whether rotational values are in degrees (yes) or radians (no).

endheader
time	pelvis_tilt	pelvis_list	pelvis_rotation	pelvis_tx	pelvis_ty	pelvis_tz	hip_flexion_r	hip_adduction_r	hip_rotation_r	knee_angle_r	ankle_angle_r	subtalar_angle_r	mtp_angle_r	hip_flexion_l	hip_adduction_l	hip_rotation_l	knee_angle_l	ankle_angle_l	subtalar_angle_l	mtp_angle_l	lumbar_extension	lumbar_bending	lumbar_rotation	arm_flex_r	arm_add_r	arm_rot_r	elbow_flex_r	pro_sup_r	wrist_flex_r	wrist_dev_r	arm_flex_l	arm_add_l	arm_rot_l	elbow_flex_l	pro_sup_l	wrist_flex_l	wrist_dev_l
22.77	0.277711	1.30577	1.20156	0.669338	1.36803	0.962462	0.459844	0.0434896	-0.261908	0.299342	-0.00332435	0	0	0.228522	-0.129649	-0.218779	0.588154	0.194006	0	0	-0.197447	0.19942	0.146019	-0.282574	-0.452393	0.0486988	1.52951	1.53993	0	0	-0.0986102	-0.283829	0.360619	1.24149	1.32544	0	0
22.78	0.270792	1.31001	1.20596	0.670798	1.3693	0.963193	0.45291	0.0430391	-0.259453	0.295527	-0.00279748	0	0	0.235165	-0.129657	-0.22177	0.603499	0.195868	0	0	-0.203852	0.193949	0.151168	-0.286392	-0.447811	0.0464966	1.52891	1.54067	0	0	-0.0983873	-0.284346	0.359665	1.23883	1.32882	0	0
22.79	0.263068	1.31431	1.21085	0.672245	1.37054	0.963963	0.445846	0.042537	-0.257046	0.291357	-0.0026681	0	0	0.240902	-0.129037	-0.224879	0.615424	0.198446	0	0	-0.210119	0.188179	0.156161	-0.289587	-0.44306	0.0445429	1.52773	1.54168	0	0	-0.0981198	-0.284932	0.358544	1.23607	1.33221	0	0
22.8	0.253586	1.31844	1.21753	0.673602	1.37173	0.964762	0.43875	0.0417689	-0.254181	0.286287	-0.00297962	0	0	0.246189	-0.127603	-0.22813	0.624011	0.202376	0	0	-0.215934	0.182149	0.16075	-0.292317	-0.438405	0.0425726	1.52621	1.54316	0	0	-0.0977437	-0.285697	0.357333	1.23323	1.33501	0	0
22.81	0.242558	1.32242	1.22575	0.674868	1.37286	0.965583	0.431681	0.0407454	-0.250891	0.280611	-0.00372666	0	0	0.250859	-0.125456	-0.231615	0.629201	0.206488	0	0	-0.221439	0.175942	0.165054	-0.294781	-0.433536	0.0401948	1.52472	1.54439	0	0	-0.0972393	-0.286669	0.356239	1.23026	1.33687	0	0
22.82	0.230712	1.32634	1.23491	0.67605	1.37393	0.966419	0.424895	0.039376	-0.247821	0.275151	-0.00454169	0	0	0.254908	-0.122757	-0.235143	0.63111	0.210205	0	0	-0.226956	0.169841	0.169517	-0.29762	-0.428515	0.0374161	1.52367	1.54475	0	0	-0.0961505	-0.28784	0.356095	1.22719	1.3375	0	0
22.83	0.218381	1.33018	1.24484	0.677165	1.37494	0.967259	0.418431	0.0377542	-0.245097	0.27007	-0.00536562	0	0	0.258401	-0.119636	-0.238808	0.629897	0.213014	0	0	-0.232379	0.163804	0.17366	-0.300244	-0.423624	0.0349573	1.52249	1.54457	0	0	-0.0946105	-0.289152	0.356807	1.22427	1.33723	0	0
22.84	0.205389	1.33366	1.25548	0.678188	1.37592	0.968051	0.412636	0.0360005	-0.242339	0.265528	-0.00612866	0	0	0.261536	-0.116117	-0.242628	0.625596	0.214714	0	0	-0.237263	0.157787	0.177591	-0.302575	-0.419218	0.0333926	1.52077	1.54423	0	0	-0.092892	-0.290547	0.358439	1.222	1.33654	0	0
22.85	0.191624	1.33683	1.26714	0.679116	1.37688	0.968771	0.407632	0.0339125	-0.2397	0.262032	-0.00646143	0	0	0.264203	-0.112214	-0.246436	0.618324	0.215525	0	0	-0.241708	0.151909	0.181249	-0.304895	-0.415407	0.0319465	1.51919	1.54523	0	0	-0.091135	-0.292074	0.360532	1.21966	1.33584	0	0
22.86	0.177488	1.33967	1.27944	0.679966	1.37781	0.969423	0.403446	0.0316287	-0.237368	0.259453	-0.00659635	0	0	0.266605	-0.108123	-0.250518	0.608575	0.215851	0	0	-0.245755	0.146255	0.184471	-0.307128	-0.411868	0.0303451	1.51776	1.54732	0	0	-0.0896383	-0.293674	0.362705	1.2175	1.33556	0	0
22.87	0.164189	1.34206	1.29118	0.680767	1.37871	0.970005	0.399891	0.029593	-0.235011	0.257305	-0.00676799	0	0	0.268919	-0.104281	-0.255109	0.596609	0.215185	0	0	-0.249389	0.141084	0.187208	-0.30933	-0.408554	0.0286517	1.51668	1.54948	0	0	-0.0886229	-0.295257	0.364397	1.21571	1.33626	0	0
22.88	0.151242	1.34361	1.30306	0.681469	1.37957	0.97046	0.397533	0.0276513	-0.232594	0.255904	-0.00685622	0	0	0.271685	-0.100381	-0.258869	0.582569	0.213635	0	0	-0.252144	0.136508	0.189356	-0.31168	-0.405516	0.0271647	1.51603	1.55077	0	0	-0.0880818	-0.29667	0.364838	1.21407	1.3382	0	0
22.89	0.139601	1.34412	1.31438	0.682047	1.38038	0.97075	0.396576	0.0258741	-0.230825	0.255515	-0.00640525	0	0	0.275411	-0.0965377	-0.261403	0.566757	0.211258	0	0	-0.253732	0.132787	0.190808	-0.314129	-0.403004	0.0258676	1.51551	1.55143	0	0	-0.0877858	-0.297859	0.365353	1.21299	1.33958	0	0
22.9	0.127224	1.34508	1.33525	0.683146	1.38108	0.971019	0.395997	0.0265667	-0.222498	0.258099	-0.0103846	0	0	0.27798	-0.0994845	-0.2723	0.54789	0.214796	0	0	-0.254462	0.127919	0.18776	-0.318117	-0.399342	0.0251259	1.5142	1.5501	0	0	-0.0852256	-0.300052	0.366732	1.21231	1.33813	0	0
22.91	0.117458	1.34534	1.34515	0.683594	1.38185	0.97125	0.395634	0.024656	-0.2216	0.25866	-0.00981741	0	0	0.280566	-0.0960896	-0.27684	0.528254	0.210822	0	0	-0.255792	0.124823	0.188986	-0.320321	-0.397516	0.0243829	1.51296	1.55055	0	0	-0.0845333	-0.300778	0.368019	1.21081	1.33939	0	0
22.92	0.109319	1.34396	1.34589	0.683359	1.38269	0.971331	0.396575	0.0200496	-0.228787	0.25727	-0.00424635	0	0	0.285134	-0.0864682	-0.272573	0.508856	0.200254	0	0	-0.256285	0.123548	0.193482	-0.320833	-0.397419	0.0238625	1.51196	1.55102	0	0	-0.0862208	-0.300356	0.369144	1.2094	1.34068	0	0
22.93	0.100074	1.3423	1.35682	0.683581	1.38336	0.971332	0.398725	0.0177338	-0.229908	0.259089	-0.00263182	0	0	0.289921	-0.0829902	-0.275345	0.487329	0.196064	0	0	-0.255143	0.121275	0.193252	-0.323242	-0.396014	0.0230801	1.51097	1.55157	0	0	-0.086154	-0.301017	0.370205	1.20893	1.34191	0	0
22.94	0.092776	1.34013	1.36628	0.683719	1.38399	0.971264	0.401362	0.0155874	-0.231711	0.26095	-0.00119036	0	0	0.294866	-0.0797603	-0.277194	0.464824	0.191405	0	0	-0.253426	0.119637	0.19268	-0.325882	-0.394787	0.0221003	1.51034	1.5519	0	0	-0.0865436	-0.301417	0.37053	1.20903	1.3435	0	0
22.95	0.0873762	1.33752	1.37448	0.683763	1.3846	0.971116	0.404191	0.0137365	-0.233854	0.262462	0.000140799	0	0	0.299976	-0.0766263	-0.277534	0.441625	0.186646	0	0	-0.251232	0.118656	0.191618	-0.328773	-0.393433	0.0205803	1.50997	1.55229	0	0	-0.0872158	-0.301629	0.370279	1.20931	1.34549	0	0
22.96	0.0833956	1.33451	1.38183	0.683721	1.38517	0.970898	0.407446	0.0119432	-0.236596	0.264209	0.00161844	0	0	0.305496	-0.073469	-0.277146	0.417618	0.180843	0	0	-0.24854	0.118201	0.19006	-0.331699	-0.392076	0.0190345	1.5095	1.55273	0	0	-0.0879747	-0.301744	0.369925	1.20938	1.34775	0	0
22.97	0.0794301	1.33111	1.38962	0.68359	1.38569	0.970652	0.411109	0.0099881	-0.239473	0.265909	0.00286257	0	0	0.31106	-0.0699283	-0.276165	0.392398	0.174667	0	0	-0.245308	0.117887	0.187871	-0.334265	-0.390833	0.0178602	1.50857	1.55298	0	0	-0.0887649	-0.301664	0.369407	1.20899	1.35016	0	0
22.98	0.0760262	1.32742	1.3971	0.683406	1.38618	0.97037	0.414832	0.00817274	-0.24199	0.267072	0.00385518	0	0	0.316479	-0.0660555	-0.274192	0.36624	0.168235	0	0	-0.241715	0.117802	0.185472	-0.336772	-0.389427	0.0165963	1.50741	1.55319	0	0	-0.0895128	-0.301469	0.369012	1.20846	1.3527	0	0
22.99	0.0741576	1.32348	1.40316	0.683193	1.38664	0.970041	0.418933	0.00666028	-0.244817	0.268634	0.00518914	0	0	0.321572	-0.0622328	-0.269673	0.339521	0.160962	0	0	-0.237947	0.118237	0.183223	-0.339608	-0.387979	0.0149698	1.50669	1.55386	0	0	-0.0902328	-0.301236	0.368958	1.20806	1.35527	0	0
23	0.073854	1.31935	1.40789	0.682933	1.38708	0.96968	0.423261	0.00540934	-0.248075	0.27039	0.00655207	0	0	0.326416	-0.0585185	-0.263531	0.312296	0.152418	0	0	-0.233919	0.11914	0.180607	-0.34236	-0.386629	0.0136039	1.50593	1.55465	0	0	-0.0913583	-0.300863	0.368406	1.20789	1.35781	0	0
23.01	0.0742694	1.31547	1.4121	0.68257	1.38752	0.969318	0.427386	0.00404886	-0.251595	0.272304	0.00784917	0	0	0.33025	-0.0545045	-0.256429	0.284248	0.142112	0	0	-0.230066	0.120264	0.177665	-0.345073	-0.385473	0.0123849	1.50531	1.55493	0	0	-0.092733	-0.300359	0.367398	1.20791	1.36055	0	0
23.02	0.0755882	1.3117	1.4154	0.682158	1.388	0.968938	0.431472	0.00272739	-0.255227	0.274561	0.0093542	0	0	0.332974	-0.0502938	-0.248613	0.254936	0.129041	0	0	-0.226195	0.121678	0.174613	-0.347912	-0.384396	0.0110074	1.50486	1.55459	0	0	-0.0944219	-0.299746	0.366243	1.20831	1.3636	0	0
23.03	0.0782308	1.30807	1.41743	0.681684	1.38855	0.968524	0.435544	0.00146609	-0.259679	0.27749	0.0114495	0	0	0.334223	-0.0459148	-0.238601	0.223822	0.112148	0	0	-0.222208	0.123559	0.171387	-0.350904	-0.383543	0.00928024	1.50449	1.55415	0	0	-0.0965964	-0.298813	0.3646	1.20877	1.36796	0	0
23.04	0.0842936	1.30516	1.41597	0.681168	1.38921	0.968119	0.438503	0.000953744	-0.264623	0.280407	0.0138522	0	0	0.333242	-0.0420913	-0.226651	0.191331	0.0923802	0	0	-0.218792	0.126414	0.168229	-0.353942	-0.383214	0.00747149	1.50425	1.55543	0	0	-0.0991696	-0.297183	0.361657	1.20871	1.38064	0	0
23.05	0.0960353	1.30297	1.4077	0.680733	1.39001	0.967692	0.439898	0.00264338	-0.267953	0.28224	0.0157676	0	0	0.33083	-0.0404862	-0.217086	0.160234	0.072286	0	0	-0.216012	0.130713	0.166775	-0.357596	-0.383319	0.00533669	1.50454	1.55612	0	0	-0.101355	-0.295846	0.361418	1.20869	1.38265	0	0
23.06	0.112188	1.30113	1.39438	0.680349	1.39095	0.967216	0.440269	0.00596537	-0.270844	0.283367	0.017576	0	0	0.327116	-0.0403338	-0.207137	0.129914	0.0506659	0	0	-0.213432	0.136201	0.166145	-0.361608	-0.38379	0.00348465	1.50514	1.55619	0	0	-0.103765	-0.294408	0.361743	1.20838	1.38437	0	0
23.07	0.130996	1.2995	1.37801	0.680021	1.392	0.966718	0.439843	0.0103599	-0.273306	0.283907	0.0192023	0	0	0.322391	-0.04114	-0.197051	0.100826	0.026954	0	0	-0.210862	0.142389	0.165842	-0.36576	-0.384575	0.00195593	1.50584	1.55659	0	0	-0.106543	-0.292922	0.362101	1.2075	1.3859	0	0
